<svg width="86" height="68" viewBox="0 0 86 68" fill="none" xmlns="http://www.w3.org/2000/svg">
<g clip-path="url(#clip0_178_152)">
<path d="M0 22.036C0 18.2327 2.6778 14.9551 6.40479 14.1967L76.4048 -0.0474854C81.3625 -1.05632 86 2.73254 86 7.79186V60C86 64.4183 82.4183 68 78 68H8C3.58172 68 0 64.4183 0 60V22.036Z" fill="#FDA942"/>
<g clip-path="url(#clip1_178_152)">
<path d="M59.2658 42.8698C58.0057 42.6681 54.0665 42.0377 52.8164 41.8377V40.2833C55.9948 38.8964 58.0898 35.7348 58.0898 32.2267V28.6231H62.4844C62.9697 28.6231 63.3633 28.2296 63.3633 27.7442V26.737C63.3633 24.6268 61.6466 22.9102 59.5365 22.9102H58.0461C57.6036 18.4749 53.8505 15 49.3008 15C44.751 15 40.9979 18.4749 40.5556 22.9102H39.065C36.955 22.9102 35.2383 24.6268 35.2383 26.7369V27.7441C35.2383 28.2295 35.6318 28.623 36.1172 28.623H40.5117V32.2266C40.5117 35.7349 42.6069 38.8966 45.7852 40.2833V41.8377C44.4396 42.053 40.6897 42.6531 39.3357 42.8698C35.462 43.4899 32.6016 46.835 32.6016 50.7671V59.1211C32.6016 59.6064 32.995 60 33.4805 60H65.1211C65.6064 60 66 59.6064 66 59.1211V50.7671C66 46.844 63.1487 43.4913 59.2658 42.8698V42.8698ZM49.3008 16.7578C52.88 16.7578 55.841 19.4467 56.2752 22.9102H42.3264C42.7606 19.4467 45.7215 16.7578 49.3008 16.7578ZM42.2695 32.2266V28.623H45.4337C45.919 28.623 46.3126 28.2295 46.3126 27.7441C46.3126 27.2588 45.919 26.8652 45.4337 26.8652C44.5277 26.8652 38.0658 26.8652 36.9961 26.8652V26.7369C36.9961 25.5961 37.9242 24.668 39.065 24.668H59.5365C60.6773 24.668 61.6055 25.5961 61.6055 26.7369V26.8652C60.7577 26.8652 54.2691 26.8652 53.3438 26.8652C52.8585 26.8652 52.4649 27.2588 52.4649 27.7441C52.4649 28.2295 52.8585 28.623 53.3438 28.623H56.332V32.2266C56.332 36.0688 53.2218 39.2578 49.3008 39.2578C45.38 39.2578 42.2695 36.0691 42.2695 32.2266ZM46.8029 43.4549C47.2294 43.3867 47.543 43.0189 47.543 42.5871V40.8384C48.1181 40.9552 48.7057 41.0156 49.3008 41.0156C49.8959 41.0156 50.4835 40.9552 51.0586 40.8384V42.5871C51.0586 43.0189 51.3722 43.3867 51.7986 43.4549L54.7156 43.9217L49.3008 51.1418L43.8859 43.9217L46.8029 43.4549ZM51.1465 58.2422H47.543V54.1992H51.1465V58.2422ZM34.3594 50.7671C34.3594 47.6842 36.5691 45.0928 39.6135 44.6054L41.9241 44.2357L48.0782 52.4414H46.6641C46.1787 52.4414 45.7852 52.835 45.7852 53.3203V58.2422H39.6328V53.3203C39.6328 52.835 39.2393 52.4414 38.7539 52.4414C38.2685 52.4414 37.875 52.835 37.875 53.3203V58.2422H34.3594V50.7671ZM64.2422 58.2422H60.7266V53.3203C60.7266 52.835 60.333 52.4414 59.8477 52.4414C59.3623 52.4414 58.9688 52.835 58.9688 53.3203V58.2422H52.9043V53.3203C52.9043 52.835 52.5107 52.4414 52.0254 52.4414H50.5233L56.6774 44.2357L58.988 44.6054C62.0324 45.0929 64.2422 47.6842 64.2422 50.7671V58.2422Z" fill="white"/>
<path d="M52.3446 33.985C52.5876 33.5648 52.4438 33.0271 52.0236 32.7842C51.6034 32.5412 51.0658 32.685 50.8229 33.1052C50.5093 33.6476 49.9262 33.9845 49.3012 33.9845C48.6762 33.9845 48.0932 33.6476 47.7796 33.1052C47.5367 32.6851 46.9993 32.5411 46.5788 32.7842C46.1586 33.0271 46.0148 33.5648 46.2578 33.985C46.8845 35.0689 48.0506 35.7423 49.3012 35.7423C50.5518 35.7423 51.718 35.0689 52.3446 33.985V33.985Z" fill="white"/>
<path d="M21.8789 58.2422C21.3935 58.2422 21 58.6358 21 59.1211C21 59.6064 21.3935 60 21.8789 60H27.1523C27.6378 60 28.0312 59.6064 28.0312 59.1211C28.0312 58.6358 27.6378 58.2422 27.1523 58.2422H25.3945V43.8959L38.0256 38.8434C38.3594 38.7099 38.5781 38.3867 38.5781 38.0273C38.5781 37.668 38.3594 37.3447 38.0256 37.2113L25.3945 32.1588V27.4805C25.3945 26.9951 25.001 26.6016 24.5156 26.6016C24.0302 26.6016 23.6367 26.9951 23.6367 27.4805V58.2422H21.8789ZM35.3327 38.0273L25.3945 42.0025V34.0521L35.3327 38.0273Z" fill="white"/>
<path d="M49.3887 28.623C49.8741 28.623 50.2676 28.2295 50.2676 27.7441C50.2676 27.2587 49.8741 26.8652 49.3887 26.8652C48.9033 26.8652 48.5098 27.2587 48.5098 27.7441C48.5098 28.2295 48.9033 28.623 49.3887 28.623Z" fill="white"/>
</g>
</g>
<defs>
<clipPath id="clip0_178_152">
<rect width="86" height="68" fill="white"/>
</clipPath>
<clipPath id="clip1_178_152">
<rect width="45" height="45" fill="white" transform="translate(21 15)"/>
</clipPath>
</defs>
</svg>
