<svg width="86" height="68" viewBox="0 0 86 68" fill="none" xmlns="http://www.w3.org/2000/svg">
<g clip-path="url(#clip0_178_172)">
<path d="M0 22.036C0 18.2327 2.6778 14.9551 6.40479 14.1967L76.4048 -0.0474854C81.3625 -1.05632 86 2.73254 86 7.79186V60C86 64.4183 82.4183 68 78 68H8C3.58172 68 0 64.4183 0 60V22.036Z" fill="#3B673F"/>
<g clip-path="url(#clip1_178_172)">
<path d="M55.441 35.7745C55.441 33.3457 54.7172 31.007 53.3478 29.0114C52.0114 27.0637 50.1519 25.5662 47.9705 24.6808C47.4808 24.4819 46.9225 24.718 46.7237 25.2077C46.5248 25.6976 46.7608 26.2558 47.2506 26.4546C51.0632 28.0019 53.5266 31.6602 53.5266 35.7745C53.5266 41.3187 49.0162 45.8291 43.4721 45.8291C37.9278 45.8291 33.4174 41.3187 33.4174 35.7745C33.4174 31.6521 35.8876 27.991 39.7107 26.4476C40.2008 26.2497 40.4378 25.6918 40.2398 25.2016C40.0418 24.7114 39.4838 24.4745 38.9938 24.6724C36.8071 25.5553 34.9427 27.0525 33.6023 29.0024C32.2288 31.0001 31.5029 33.3418 31.5029 35.7745C31.5029 42.3742 36.8723 47.7435 43.472 47.7435C50.0716 47.7435 55.441 42.3742 55.441 35.7745V35.7745Z" fill="white"/>
<path d="M41.269 35.0367C41.9021 35.5333 42.7795 35.9548 44.2974 36.4913C45.3437 36.8611 45.3207 37.7092 45.2623 38.0566C45.1447 38.7563 44.5562 39.5123 43.542 39.5191C42.5727 39.5263 42.2634 39.4782 41.527 38.9997C41.1021 38.7237 40.5228 38.8004 40.2165 39.204C39.8773 39.651 39.9924 40.2835 40.4537 40.5853C41.2638 41.1152 41.8577 41.3249 42.5913 41.3984V42.1043C42.5913 42.6141 42.9759 43.0592 43.4846 43.0922C44.042 43.1284 44.5056 42.6868 44.5056 42.1371V41.3062C45.9883 40.9081 46.9385 39.6325 47.1502 38.3739C47.4258 36.734 46.5358 35.2521 44.9354 34.6863C44.025 34.3646 43.0181 33.9756 42.4503 33.5304C42.2577 33.3793 42.1765 33.052 42.2435 32.6966C42.3106 32.3404 42.5505 31.9091 43.0224 31.767C44.1479 31.4278 44.8766 32.0421 44.907 32.0684L44.9934 32.1339C45.3894 32.4345 45.95 32.3804 46.2812 32.0095C46.6237 31.6261 46.6006 31.0401 46.2291 30.6848L46.194 30.6513C45.8764 30.3583 45.2818 29.9959 44.5056 29.8349V29.1853C44.5056 28.6755 44.1209 28.2304 43.6123 28.1974C43.0548 28.1612 42.5913 28.6027 42.5913 29.1525V29.8999C42.5511 29.9108 42.5108 29.9216 42.4702 29.9339C41.3884 30.2597 40.5807 31.1824 40.3623 32.3419C40.1614 33.4081 40.5088 34.4406 41.269 35.0367V35.0367Z" fill="white"/>
<path d="M67.7268 49.5784L59.32 41.1716C59.5419 40.8987 59.8035 40.6542 60.1019 40.4487C61.6398 39.3893 62.5579 37.6418 62.5579 35.7743C62.5579 33.9068 61.6398 32.1593 60.1019 31.0999C58.8827 30.2601 58.2682 28.7766 58.5365 27.3205C58.8747 25.4839 58.2884 23.5991 56.9679 22.2785C55.6474 20.9579 53.7627 20.3716 51.9258 20.7099C50.4694 20.9782 48.9862 20.3636 48.1464 19.1445C47.0869 17.6066 45.3395 16.6885 43.472 16.6885C41.6044 16.6885 39.857 17.6066 38.7975 19.1446C37.9577 20.3637 36.4743 20.9782 35.0181 20.71C33.1815 20.3719 31.2966 20.9581 29.9761 22.2786C28.6556 23.5991 28.0692 25.484 28.4075 27.3206C28.6758 28.7767 28.0612 30.2602 26.842 31.1001C25.3041 32.1595 24.386 33.907 24.386 35.7745C24.386 37.6421 25.3041 39.3895 26.842 40.449C27.1449 40.6575 27.4102 40.906 27.6342 41.1838L19.2804 49.5372C19.0315 49.7861 18.9393 50.1514 19.0402 50.4885C19.1411 50.8256 19.419 51.0802 19.7637 51.1514L26.6947 52.5823L28.1265 59.5143C28.2774 60.2451 29.2117 60.5265 29.7407 59.9975L38.0968 51.6415C38.3605 51.8594 38.5977 52.1141 38.7974 52.4042C39.8569 53.9421 41.6043 54.8602 43.4719 54.8602C45.3394 54.8602 47.0868 53.9421 48.1463 52.4041C48.3492 52.1096 48.5903 51.8512 48.8588 51.6312L57.2663 60.0387C57.7953 60.5677 58.7297 60.2861 58.8805 59.5554L60.3114 52.6244L67.2435 51.1926C67.9746 51.0417 68.2558 50.1075 67.7268 49.5784V49.5784ZM29.6422 57.3889L28.4421 51.5786C28.3649 51.2045 28.0724 50.9122 27.6983 50.8348L21.8894 49.6356L28.4394 43.0856C28.5027 43.5946 28.418 44.0631 28.3562 44.5649C27.9145 48.1614 31.0507 51.3277 34.6579 50.8928C35.1878 50.8299 35.6804 50.74 36.2164 50.8149L29.6422 57.3889ZM46.5698 51.3182C45.8572 52.3527 44.7282 52.946 43.472 52.946C42.2158 52.946 41.0867 52.3527 40.3741 51.3183C38.9882 49.3065 36.7685 48.6999 34.4468 48.9906C33.2995 49.1349 32.1392 48.7301 31.3239 47.9093C30.3372 46.9161 30.1435 45.6604 30.3291 44.3318C30.6235 42.2276 29.678 40.0777 27.928 38.8722C26.8936 38.1596 26.3003 37.0304 26.3003 35.7742C26.3003 34.5181 26.8936 33.3889 27.928 32.6763C29.7678 31.409 30.6949 29.1705 30.2903 26.9735C30.0627 25.7381 30.4415 24.5202 31.3298 23.632C32.2179 22.7437 33.4359 22.3651 34.6714 22.5924C36.8678 22.997 39.1068 22.0699 40.3741 20.2303C41.0867 19.1958 42.2158 18.6025 43.472 18.6025C44.7282 18.6025 45.8572 19.1958 46.5698 20.2303C47.8371 22.07 50.0758 22.9971 52.2726 22.5925C53.5083 22.3651 54.726 22.7439 55.6141 23.6321C56.5024 24.5203 56.8812 25.7382 56.6536 26.9736C56.2489 29.1706 57.1761 31.4091 59.0159 32.6764C60.0503 33.389 60.6436 34.5182 60.6436 35.7743C60.6436 37.0305 60.0503 38.1596 59.0159 38.8722C56.9787 40.2756 56.4073 42.4979 56.6903 44.8175C56.8325 45.9964 56.3922 47.1861 55.5269 47.9987C54.4277 49.0311 53.1875 49.026 51.7969 48.8901C49.7607 48.6926 47.7306 49.6331 46.5698 51.3182V51.3182ZM59.3079 50.877C58.9337 50.9544 58.6413 51.2467 58.564 51.6209L57.3648 57.4298L50.7471 50.812C51.0588 50.7701 51.3727 50.7665 51.6852 50.8033C53.3599 51.0009 54.8834 50.8746 56.309 49.832C57.9463 48.6345 58.8333 46.6052 58.5907 44.5889C58.5299 44.073 58.4396 43.5882 58.5075 43.0662L65.1182 49.6769L59.3079 50.877Z" fill="white"/>
<path d="M42.588 25.1284C42.786 25.6113 43.3576 25.8447 43.8382 25.6462C44.3204 25.447 44.5555 24.878 44.3559 24.3961C44.1565 23.9146 43.5868 23.6787 43.1058 23.8793C42.6256 24.0795 42.3872 24.6463 42.588 25.1284V25.1284Z" fill="white"/>
</g>
</g>
<defs>
<clipPath id="clip0_178_172">
<rect width="86" height="68" fill="white"/>
</clipPath>
<clipPath id="clip1_178_172">
<rect width="49" height="45" fill="white" transform="translate(19 16)"/>
</clipPath>
</defs>
</svg>
