<svg width="86" height="68" viewBox="0 0 86 68" fill="none" xmlns="http://www.w3.org/2000/svg">
<g clip-path="url(#clip0_178_180)">
<path d="M0 22.036C0 18.2327 2.6778 14.9551 6.40479 14.1967L76.4048 -0.0474854C81.3625 -1.05632 86 2.73254 86 7.79186V60C86 64.4183 82.4183 68 78 68H8C3.58172 68 0 64.4183 0 60V22.036Z" fill="#F26522"/>
<g clip-path="url(#clip1_178_180)">
<path d="M61.4721 32.5149L58.6424 29.684V24.0743C58.6424 22.1786 57.1002 20.6364 55.2045 20.6364H49.6008L45.2198 16.2529C45.0587 16.0917 44.8401 16.001 44.6122 16.0009L41.4104 16C41.4103 16 41.4102 16 41.4102 16C41.1823 16 40.9637 16.0905 40.8026 16.2516L36.415 20.6365H30.7956C28.9 20.6365 27.3578 22.1787 27.3578 24.0744V29.693L24.53 32.5143C23.6933 33.3506 23.2324 34.4626 23.2324 35.6457V55.5729C23.2324 56.7654 23.7072 57.8484 24.4766 58.6452C24.4932 58.6651 24.5104 58.6846 24.5291 58.7033C24.5477 58.7219 24.5671 58.739 24.5869 58.7555C25.3837 59.5251 26.4669 60 27.6595 60H39.1326C39.6072 60 39.992 59.6151 39.992 59.1405C39.992 58.6659 39.6072 58.2811 39.1326 58.2811H27.6595C27.2257 58.2811 26.8158 58.178 26.4519 57.9959L36.5824 47.8654L39.8805 51.1616C40.7166 51.9972 41.8279 52.4573 43.0099 52.4573H43.0113C44.1938 52.457 45.3053 51.9961 46.1413 51.1597L49.4256 47.8733L59.5483 57.9959C59.1845 58.1779 58.7745 58.2811 58.3407 58.2811H46.8678C46.3931 58.2811 46.0083 58.6659 46.0083 59.1405C46.0083 59.6151 46.3931 60 46.8678 60H58.3409C59.5334 60 60.6166 59.5251 61.4134 58.7557C61.4332 58.7391 61.4528 58.7219 61.4713 58.7033C61.4901 58.6846 61.5072 58.6651 61.5239 58.6451C62.2932 57.8483 62.768 56.7653 62.768 55.5729V35.6444C62.7679 34.4625 62.3078 33.3511 61.4721 32.5149V32.5149ZM58.6425 32.1154L60.2563 33.73C60.4053 33.8792 60.5342 34.043 60.6429 34.2176L58.6425 36.2193V32.1154ZM41.7659 17.719L44.2557 17.7199L47.1705 20.6365H38.8466L41.7659 17.719ZM25.7446 33.7307L27.3579 32.1211V36.2165L25.358 34.2179C25.4667 34.0433 25.5956 33.8796 25.7446 33.7307ZM25.2364 56.7804C25.0544 56.4166 24.9514 56.0067 24.9514 55.573V36.2416L35.3666 46.6503L25.2364 56.7804ZM44.9255 49.9447C44.4142 50.4563 43.7342 50.7381 43.0108 50.7384C43.0106 50.7384 43.0103 50.7384 43.0101 50.7384C42.287 50.7384 41.6071 50.4569 41.0957 49.9457L29.0768 37.9343V24.0743C29.0768 23.1264 29.8479 22.3553 30.7957 22.3553H55.2046C56.1524 22.3553 56.9235 23.1264 56.9235 24.0743V29.9302C56.9154 29.9985 56.9154 30.0674 56.9235 30.1357V37.9392L44.9255 49.9447ZM61.049 55.573C61.049 56.0067 60.9459 56.4166 60.7639 56.7804L50.6409 46.6575L61.049 36.243V55.573Z" fill="white"/>
<path d="M43.0001 58.2812C42.7741 58.2812 42.5523 58.3732 42.3924 58.5331C42.2326 58.6929 42.1406 58.9147 42.1406 59.1407C42.1406 59.3668 42.2326 59.5885 42.3924 59.7484C42.5523 59.9091 42.7741 60.0002 43.0001 60.0002C43.2261 60.0002 43.4479 59.9091 43.6077 59.7484C43.7676 59.5885 43.8596 59.3668 43.8596 59.1407C43.8596 58.9147 43.7676 58.6929 43.6077 58.5331C43.4479 58.3733 43.2261 58.2812 43.0001 58.2812Z" fill="white"/>
<path d="M43.0006 25.96C38.526 25.96 34.8857 29.6001 34.8857 34.0747C34.8857 38.6105 38.5759 42.3006 43.1116 42.3006H48.3354C48.8101 42.3006 49.1948 41.9157 49.1948 41.4411C49.1948 40.9665 48.8101 40.5816 48.3354 40.5816H43.1116C39.5237 40.5816 36.6047 37.6626 36.6047 34.0747C36.6047 30.5481 39.4738 27.6789 43.0006 27.6789C46.5273 27.6789 49.3965 30.5481 49.3965 34.0747V35.836C49.3965 36.5129 48.8457 37.0636 48.1688 37.0636C47.4919 37.0636 46.9411 36.5129 46.9411 35.836V33.8466C46.9411 31.4935 45.0268 29.5791 42.6736 29.5791C40.1992 29.5791 38.1863 31.5921 38.1863 34.0665C38.1863 36.5409 40.1993 38.5539 42.6736 38.5539H44.0409C44.5156 38.5539 44.9003 38.169 44.9003 37.6944C44.9003 37.2198 44.5156 36.835 44.0409 36.835H42.6736C41.1471 36.835 39.9052 35.593 39.9052 34.0665C39.9052 32.54 41.1471 31.298 42.6736 31.298C44.0789 31.298 45.2222 32.4414 45.2222 33.8466V35.836C45.2222 37.4608 46.544 38.7825 48.1688 38.7825C49.7936 38.7825 51.1154 37.4608 51.1154 35.836V34.0747C51.1153 29.6001 47.475 25.96 43.0006 25.96V25.96Z" fill="white"/>
</g>
</g>
<defs>
<clipPath id="clip0_178_180">
<rect width="86" height="68" fill="white"/>
</clipPath>
<clipPath id="clip1_178_180">
<rect width="44" height="44" fill="white" transform="translate(21 16)"/>
</clipPath>
</defs>
</svg>
