<svg width="86" height="68" viewBox="0 0 86 68" fill="none" xmlns="http://www.w3.org/2000/svg">
<g clip-path="url(#clip0_46_445)">
<path d="M0 22.036C0 18.2327 2.6778 14.9551 6.40479 14.1967L76.4048 -0.0474854C81.3625 -1.05632 86 2.73254 86 7.79186V60C86 64.4183 82.4183 68 78 68H8C3.58172 68 0 64.4183 0 60V22.036Z" fill="#FBF8EF"/>
<g clip-path="url(#clip1_46_445)">
<path d="M63.5627 41.9738C64.2587 41.1346 65.0476 40.1833 65.0476 39.0004C65.0476 37.8175 64.2587 36.8662 63.5627 36.027C63.1278 35.5027 62.6781 34.9603 62.5777 34.5294C62.4696 34.0649 62.6378 33.3644 62.8005 32.6871C63.0485 31.6539 63.3298 30.4829 62.8208 29.4521C62.3031 28.4041 61.1786 27.886 60.1866 27.429C59.5519 27.1365 58.8956 26.8341 58.6031 26.4763C58.3071 26.1142 58.1494 25.4186 57.997 24.7458C57.7611 23.7034 57.4934 22.5219 56.5682 21.8003C55.6473 21.082 54.4112 21.0884 53.3216 21.0946C52.6129 21.0983 51.8808 21.1024 51.4483 20.8985C51.0326 20.7027 50.5878 20.149 50.1575 19.6137C49.4773 18.7672 48.7064 17.8076 47.5353 17.5476C46.4044 17.2965 45.3051 17.822 44.3353 18.2856C43.6896 18.5942 43.0218 18.9135 42.5237 18.9135C42.0257 18.9135 41.3579 18.5942 40.7121 18.2854C39.7423 17.8218 38.6435 17.2964 37.5121 17.5474C36.3409 17.8074 35.5699 18.7669 34.8898 19.6136C34.4596 20.149 34.0148 20.7025 33.5991 20.8984C33.1667 21.1021 32.4351 21.0987 31.7258 21.0944C30.6362 21.0888 29.4002 21.0818 28.4792 21.8001C27.554 22.5217 27.2864 23.7032 27.0504 24.7456C26.898 25.4184 26.7404 26.114 26.4444 26.4761C26.1518 26.834 25.4955 27.1363 24.8607 27.4288C23.8687 27.8859 22.7443 28.404 22.2266 29.452C21.7175 30.4826 21.9988 31.6538 22.2468 32.687C22.4096 33.3644 22.5778 34.0648 22.4697 34.5293C22.3694 34.9602 21.9197 35.5025 21.4847 36.0269C20.7889 36.8662 20 37.8174 20 39.0004C20 40.1834 20.7889 41.1346 21.485 41.9738C21.9198 42.4982 22.3696 43.0406 22.47 43.4714C22.5781 43.9359 22.4099 44.6364 22.2472 45.3137C21.9991 46.3469 21.7178 47.518 22.2268 48.5487C22.7445 49.5968 23.869 50.1149 24.861 50.572C25.4957 50.8644 26.152 51.1668 26.4445 51.5245C26.7405 51.8866 26.898 52.5822 27.0504 53.2549C27.2864 54.2974 27.5539 55.4789 28.4792 56.2005C29.4001 56.9188 30.6357 56.9123 31.7258 56.9063C32.4346 56.9023 33.1667 56.8985 33.5991 57.1023C34.0148 57.2982 34.4597 57.8518 34.8899 58.3872C35.57 59.2339 36.341 60.1933 37.5122 60.4534C38.6429 60.7044 39.7422 60.1789 40.7122 59.7154C41.3579 59.4067 42.0257 59.0874 42.5237 59.0874C43.0218 59.0874 43.6896 59.4067 44.3354 59.7155C45.1316 60.0961 46.015 60.5185 46.9318 60.5185C47.1316 60.5185 47.3329 60.4984 47.5354 60.4535C48.7065 60.1934 49.4775 59.234 50.1577 58.3873C50.588 57.8519 51.0327 57.2984 51.4483 57.1025C51.8808 56.8988 52.6128 56.9026 53.3216 56.9065C54.4108 56.9122 55.6474 56.9191 56.5683 56.2008C57.4934 55.4792 57.7611 54.2977 57.997 53.2553C58.1494 52.5825 58.307 51.8869 58.6031 51.5248C58.8955 51.167 59.5518 50.8646 60.1866 50.5721C61.1787 50.115 62.3031 49.5968 62.8208 48.5489C63.3299 47.5183 63.0486 46.3472 62.8006 45.314C62.6379 44.6365 62.4697 43.9361 62.5778 43.4714C62.6781 43.0405 63.1278 42.4982 63.5627 41.9738ZM62.0408 40.7696C61.4648 41.4641 60.8692 42.1824 60.6679 43.0474C60.4594 43.9427 60.6802 44.8619 60.8937 45.7508C61.0762 46.5106 61.2648 47.2964 61.0568 47.7176C60.8404 48.1556 60.0832 48.5045 59.3509 48.8419C58.5141 49.2275 57.6487 49.6262 57.0725 50.331C56.4929 51.0401 56.2853 51.9562 56.0848 52.842C55.9107 53.611 55.7306 54.406 55.3462 54.7058C54.966 55.0022 54.136 54.9975 53.3324 54.9935C52.4013 54.9887 51.4381 54.9832 50.5973 55.3795C49.7724 55.7682 49.185 56.4993 48.6169 57.2063C48.1144 57.8317 47.5947 58.4784 47.1011 58.588C46.6447 58.6894 45.9083 58.3376 45.1964 57.9973C44.3503 57.5927 43.4754 57.1744 42.5237 57.1744C41.572 57.1744 40.6972 57.5926 39.851 57.9971C39.1392 58.3375 38.4026 58.6898 37.9463 58.588C37.4527 58.4783 36.933 57.8316 36.4304 57.2063C35.8623 56.4993 35.2749 55.7683 34.4499 55.3794C33.7034 55.0276 32.8607 54.9923 32.0292 54.9923C31.9243 54.9923 31.8193 54.9929 31.7148 54.9935C30.9117 54.9975 30.0811 55.0022 29.7011 54.7058C29.3165 54.406 29.1365 53.6109 28.9624 52.8419C28.7618 51.9561 28.5544 51.04 27.9747 50.3309C27.3985 49.6261 26.5331 49.2274 25.6963 48.8419C24.964 48.5044 24.2068 48.1556 23.9905 47.7176C23.7824 47.2963 23.9711 46.5105 24.1535 45.7506C24.367 44.8619 24.5878 43.9427 24.3795 43.0473C24.1782 42.1822 23.5825 41.4641 23.0065 40.7695C22.4913 40.1482 21.9584 39.5055 21.9584 39.0002C21.9584 38.4949 22.4913 37.8524 23.0067 37.2309C23.5827 36.5365 24.1783 35.8184 24.3796 34.9532C24.5881 34.0579 24.3672 33.1388 24.1537 32.2498C23.9712 31.49 23.7826 30.7043 23.9907 30.2829C24.207 29.8449 24.9641 29.4961 25.6964 29.1587C26.5333 28.7731 27.3987 28.3743 27.9749 27.6695C28.5546 26.9604 28.7621 26.0443 28.9626 25.1584C29.1367 24.3895 29.3169 23.5945 29.7013 23.2946C30.0814 22.9982 30.9112 23.0027 31.715 23.007C32.6464 23.0122 33.6094 23.0172 34.4501 22.6211C35.275 22.2324 35.8625 21.5013 36.4305 20.7943C36.9331 20.1688 37.4527 19.5222 37.9464 19.4125C38.4027 19.3108 39.1393 19.6629 39.8511 20.0033C40.6972 20.4078 41.5721 20.8261 42.5237 20.8261C43.4754 20.8261 44.3504 20.4078 45.1965 20.0031C45.9084 19.6628 46.6447 19.3107 47.1012 19.4124C47.5947 19.5221 48.1145 20.1687 48.6169 20.7941C49.1851 21.5012 49.7725 22.2323 50.5975 22.621C51.4382 23.0171 52.4 23.0117 53.3326 23.0069C54.1349 23.0027 54.9664 22.9982 55.3464 23.2946C55.7309 23.5944 55.911 24.3895 56.0851 25.1584C56.2856 26.0443 56.4931 26.9604 57.0728 27.6695C57.649 28.3743 58.5144 28.773 59.3512 29.1587C60.0835 29.4961 60.8406 29.8449 61.0569 30.2829C61.265 30.7042 61.0763 31.4898 60.8939 32.2497C60.6805 33.1384 60.4597 34.0577 60.6681 34.9529C60.8693 35.818 61.4649 36.5362 62.041 37.2308C62.5562 37.8522 63.089 38.4947 63.089 39.0001C63.089 39.5057 62.5562 40.1484 62.0408 40.7696Z" fill="#F26522"/>
<path d="M42.5242 23.6963C33.8844 23.6963 26.8555 30.5618 26.8555 39.0006C26.8555 47.4394 33.8844 54.305 42.5242 54.305C51.164 54.305 58.193 47.4394 58.193 39.0006C58.193 30.5618 51.164 23.6963 42.5242 23.6963ZM42.5242 52.3919C34.9645 52.3919 28.8141 46.3846 28.8141 39.0006C28.8141 31.6167 34.9644 25.6093 42.5242 25.6093C50.084 25.6093 56.2343 31.6167 56.2343 39.0006C56.2343 46.3846 50.084 52.3919 42.5242 52.3919Z" fill="#F26522"/>
<path d="M53.2879 40.0485C52.756 39.9492 52.2434 40.2888 52.1416 40.8076C51.8036 42.5272 50.9824 44.1259 49.7667 45.4307C49.4027 45.8215 49.4319 46.4264 49.8319 46.7819C50.0197 46.9488 50.2554 47.031 50.4908 47.031C50.757 47.031 51.0221 46.9255 51.2153 46.7182C52.6737 45.1527 53.6591 43.2336 54.065 41.1682C54.167 40.6494 53.819 40.1482 53.2879 40.0485Z" fill="#F26522"/>
<path d="M52.2599 37.5674C52.266 37.5842 52.2718 37.601 52.2771 37.618C52.4063 38.0297 52.794 38.2943 53.2131 38.2943C53.3081 38.2943 53.4048 38.2806 53.5004 38.2521C54.0175 38.0972 54.3083 37.5623 54.1498 37.0572C54.1351 37.0101 54.1191 36.9633 54.1018 36.9166C53.9178 36.4198 53.3564 36.1627 52.8477 36.3425C52.339 36.5223 52.0758 37.0706 52.2599 37.5674Z" fill="#F26522"/>
<path d="M43.5026 38.0836V33.6183H45.4885C46.0292 33.6183 46.4677 33.1901 46.4677 32.6618C46.4677 32.1336 46.0292 31.7054 45.4885 31.7054H43.5026V29.308C43.5026 28.7798 43.0641 28.3516 42.5233 28.3516C41.9826 28.3516 41.5441 28.7798 41.5441 29.308V31.7449C39.3175 32.0114 37.5996 33.6236 37.5996 35.5673V36.0955C37.5996 38.0392 39.3175 39.6514 41.5441 39.9178V44.383H39.5582C39.0175 44.383 38.579 44.8113 38.579 45.3395C38.579 45.8678 39.0175 46.296 39.5582 46.296H41.5441V48.6933C41.5441 49.2216 41.9826 49.6498 42.5233 49.6498C43.0641 49.6498 43.5026 49.2216 43.5026 48.6933V46.2565C45.7292 45.99 47.4471 44.3779 47.4471 42.4341V41.9059C47.4472 39.9621 45.7293 38.35 43.5026 38.0836ZM41.5441 37.9841C40.4039 37.7694 39.5582 37.0041 39.5582 36.0955V35.5673C39.5582 34.6586 40.4039 33.8933 41.5441 33.6787V37.9841ZM45.4886 42.4343C45.4886 43.3429 44.6429 44.1082 43.5027 44.323V40.0175C44.6429 40.2322 45.4886 40.9974 45.4886 41.9061V42.4343Z" fill="#F26522"/>
</g>
</g>
<defs>
<clipPath id="clip0_46_445">
<rect width="86" height="68" fill="white"/>
</clipPath>
<clipPath id="clip1_46_445">
<rect width="45.0476" height="44" fill="white" transform="translate(20 17)"/>
</clipPath>
</defs>
</svg>
