<svg width="86" height="68" viewBox="0 0 86 68" fill="none" xmlns="http://www.w3.org/2000/svg">
<g clip-path="url(#clip0_46_456)">
<path d="M0 22.036C0 18.2327 2.6778 14.9551 6.40479 14.1967L76.4048 -0.0474854C81.3625 -1.05632 86 2.73254 86 7.79186V60C86 64.4183 82.4183 68 78 68H8C3.58172 68 0 64.4183 0 60V22.036Z" fill="#FBF8EF"/>
<g clip-path="url(#clip1_46_456)">
<path d="M36.5033 21.9202C37.66 21.8748 37.6591 20.2462 36.5033 20.2012H36.5026C35.3459 20.2468 35.3475 21.8754 36.5033 21.9202Z" fill="#F26522"/>
<path d="M45.2759 34.4537C45.693 34.6911 46.2261 34.5501 46.4668 34.1391C46.6035 33.8887 46.9997 33.8887 47.1364 34.1391C47.7563 35.1063 49.1854 34.2845 48.6463 33.2796C47.8452 31.8884 45.7575 31.8888 44.9568 33.2796C44.716 33.6907 44.8588 34.2165 45.2759 34.4537V34.4537Z" fill="#F26522"/>
<path d="M41.6717 33.2796C40.8706 31.8884 38.7829 31.8888 37.9822 33.2796C37.7414 33.6907 37.8843 34.2164 38.3013 34.4537C38.7184 34.6911 39.2516 34.5501 39.4922 34.1391C39.6289 33.8887 40.025 33.8887 40.1617 34.1391C40.7816 35.1063 42.2107 34.2845 41.6717 33.2796Z" fill="#F26522"/>
<path d="M45.2386 37.5474C45.579 37.2116 45.5789 36.6675 45.2384 36.3317C44.8978 35.9961 44.346 35.9963 44.0054 36.3319C43.6416 36.7059 42.9869 36.7057 42.6231 36.3318C42.2826 35.9963 41.7307 35.9963 41.3901 36.3318C41.0497 36.6675 41.0497 37.2117 41.3901 37.5474C42.4032 38.5882 44.2257 38.5882 45.2386 37.5474V37.5474Z" fill="#F26522"/>
<path d="M61.7447 55.0897C61.7252 54.3431 61.6275 53.5136 61.0505 53.0217C60.8378 52.8405 60.6023 52.7436 60.3813 52.6943C59.6322 50.4229 57.7495 48.7886 54.8974 47.9473L47.6732 45.8165V43.5338C48.586 43.0918 49.409 42.5035 50.1109 41.7814C51.5696 40.2808 52.444 38.2864 52.6161 36.0991C53.6322 35.8953 54.4496 35.1462 54.7394 34.1764C57.3185 33.6391 58.3763 30.4004 56.5426 28.4857C57.5384 26.6643 56.5591 24.303 54.6188 23.6581C54.7744 21.557 52.8868 19.7765 50.7652 20.0197C50.0882 18.2024 47.7638 17.299 45.9752 18.2064C44.6363 16.5975 41.991 16.5981 40.6528 18.2068C40.3982 18.0827 40.1282 17.9892 39.8485 17.9294C38.7084 17.7324 38.3591 19.324 39.4792 19.6095C39.7892 19.6758 40.0756 19.8254 40.3074 20.0423C40.5145 20.236 40.8044 20.3177 41.0842 20.2604C41.3637 20.2034 41.5973 20.0151 41.7093 19.7561C42.3015 18.3708 44.327 18.3714 44.9188 19.7561C45.0308 20.015 45.2643 20.2034 45.5439 20.2604C45.8234 20.3174 46.1136 20.236 46.3207 20.0423C47.3618 19.0538 49.1332 19.7223 49.2571 21.1358C49.2815 21.4093 49.4369 21.6547 49.6756 21.7966C49.914 21.9383 50.2068 21.9591 50.4635 21.8527C51.8489 21.2698 53.3019 22.637 52.7769 24.0285C52.6822 24.2842 52.7158 24.5691 52.8678 24.7965C53.0196 25.0238 53.2719 25.1668 53.5476 25.1817C55.0003 25.2488 55.7256 27.0123 54.7347 28.0589C54.5601 28.2467 54.479 28.5009 54.513 28.7532C54.5472 29.0055 54.6929 29.23 54.9111 29.3661C56.1073 30.1025 55.9364 31.8776 54.6634 32.402C54.3267 31.5494 53.5713 30.9014 52.6475 30.705V29.7838C52.6475 29.3092 52.2571 28.9243 51.7757 28.9243C50.8815 28.9243 50.1362 28.2646 50.0421 27.3897C49.9836 26.7414 49.1848 26.3935 48.6595 26.7874C47.9688 27.3035 46.9185 27.2041 46.3439 26.5615C46.1456 26.3483 45.8517 26.2478 45.5624 26.2939C45.2728 26.34 45.0261 26.5266 44.9061 26.7904C44.2996 28.1371 42.328 28.1366 41.7221 26.7905C41.602 26.5266 41.3554 26.34 41.0658 26.2939C40.7762 26.2478 40.4825 26.3483 40.2842 26.5615C39.7098 27.204 38.6592 27.3035 37.9687 26.7874C37.717 26.6055 37.3859 26.5701 37.1007 26.6942C36.8152 26.8185 36.619 27.0838 36.5861 27.3897C36.4919 28.2646 35.7466 28.9243 34.8524 28.9243C34.371 28.9243 33.9806 29.3092 33.9806 29.7838V30.705C33.0569 30.9015 32.3015 31.5495 31.9647 32.402C30.6911 31.8773 30.5213 30.1021 31.7169 29.3661C31.9351 29.23 32.0809 29.0056 32.1149 28.7533C32.1491 28.5008 32.0679 28.2467 31.8935 28.059C30.9021 27.0119 31.6282 25.2487 33.0804 25.1817C33.3562 25.1667 33.6084 25.0238 33.7603 24.7965C33.9121 24.5691 33.9459 24.2842 33.8511 24.0285C33.7267 23.6958 33.7123 23.3174 33.8098 22.9752C33.9392 22.518 33.6681 22.0439 33.2044 21.9164C32.7408 21.7889 32.2598 22.056 32.1304 22.5132C32.0254 22.8835 31.9845 23.2732 32.0092 23.6581C30.0686 24.3031 29.0896 26.6646 30.0855 28.4856C28.2512 30.4009 29.3107 33.6395 31.8887 34.1763C32.1784 35.146 32.9959 35.8952 34.0119 36.0991C34.1841 38.2863 35.0585 40.2807 36.5172 41.7813C37.2192 42.5034 38.0421 43.0917 38.9549 43.5337V45.8164L31.7307 47.9472C28.8794 48.7882 26.9961 50.4228 26.2471 52.6942C26.0261 52.7434 25.7904 52.8403 25.5776 53.0216C25.0006 53.5134 24.9029 54.3429 24.8834 55.0894C24.8568 56.1095 24.8295 57.1586 25.8779 57.6052V60.1404C25.8779 60.615 26.2683 60.9999 26.7497 60.9999H59.8782C60.3597 60.9999 60.7501 60.615 60.7501 60.1404V57.6052C61.7985 57.1587 61.7712 56.1098 61.7447 55.0897V55.0897ZM59.8124 54.3781C59.8527 54.3733 59.8853 54.3707 59.9115 54.3694C60.0092 54.5414 60.0318 55.8977 59.9782 56.057C59.9349 56.0665 59.87 56.078 59.7746 56.0894L53.7755 56.7988V55.0919L59.8124 54.3781ZM39.4664 47.4601C41.3711 49.8989 45.2575 49.8983 47.1616 47.4601L48.9223 47.9794C46.3833 52.0064 40.2435 52.0051 37.7056 47.9794L39.4664 47.4601ZM35.7242 35.2949C35.7242 34.8202 35.3338 34.4354 34.8524 34.4354H34.5704C33.1754 34.3783 33.1765 32.419 34.5704 32.3624H34.8524C35.3338 32.3624 35.7242 31.9775 35.7242 31.5029V30.5358C36.7252 30.2831 37.5566 29.6046 37.9979 28.6953C38.8925 28.9646 39.9156 28.8477 40.7223 28.3881C42.0594 29.8951 44.569 29.8949 45.9057 28.3881C46.7125 28.8476 47.7356 28.9646 48.6302 28.6953C49.0715 29.6046 49.9028 30.2831 50.9038 30.5358V31.5029C50.9038 31.9775 51.2942 32.3624 51.7757 32.3624H52.0577C53.4527 32.4195 53.4516 34.3788 52.0577 34.4354H51.7757C51.2942 34.4354 50.9038 34.8202 50.9038 35.2949C50.8698 45.2457 35.7566 45.242 35.7242 35.2949V35.2949ZM43.3141 44.4969C44.2223 44.4969 45.0999 44.3862 45.9296 44.1717V46.2108C44.7118 48.0273 41.916 48.0268 40.6986 46.2109V44.1716C41.5282 44.3862 42.4058 44.4969 43.3141 44.4969ZM32.2305 49.5944L35.9841 48.4872C39.1056 54.1187 47.5241 54.1166 50.6441 48.4872L54.3977 49.5944C56.5024 50.2152 57.8975 51.2898 58.5579 52.7951L52.7999 53.4759C52.3617 53.5277 52.0318 53.8942 52.0318 54.3293V59.281H34.5963V54.3293C34.5963 53.8942 34.2665 53.5277 33.8283 53.4759L28.0704 52.7951C28.7308 51.2897 30.1259 50.2151 32.2305 49.5944V49.5944ZM26.8535 56.0894C26.7582 56.078 26.6932 56.0665 26.65 56.057C26.6224 55.9036 26.6145 55.5941 26.6265 55.1338C26.6379 54.6963 26.6844 54.4735 26.7167 54.3694C26.7427 54.3707 26.7754 54.3733 26.8157 54.3781L32.8526 55.0919V56.7988L26.8535 56.0894ZM27.6216 57.9116L32.8527 58.5302V59.281H27.6216V57.9116ZM53.7754 59.281V58.5302L59.0065 57.9116V59.281H53.7754Z" fill="#F26522"/>
</g>
</g>
<defs>
<clipPath id="clip0_46_456">
<rect width="86" height="68" fill="white"/>
</clipPath>
<clipPath id="clip1_46_456">
<rect width="44.6286" height="44" fill="white" transform="translate(21 17)"/>
</clipPath>
</defs>
</svg>
