<svg width="86" height="68" viewBox="0 0 86 68" fill="none" xmlns="http://www.w3.org/2000/svg">
<g clip-path="url(#clip0_46_434)">
<path d="M0 22.036C0 18.2327 2.6778 14.9551 6.40479 14.1967L76.4048 -0.0474854C81.3625 -1.05632 86 2.73254 86 7.79186V60C86 64.4183 82.4183 68 78 68H8C3.58172 68 0 64.4183 0 60V22.036Z" fill="#FBF8EF"/>
<path d="M43 45.1328C42.5256 45.1328 42.1406 45.5178 42.1406 45.9922C42.1406 46.4666 42.5256 46.8516 43 46.8516C43.4744 46.8516 43.8594 46.4666 43.8594 45.9922C43.8594 45.5178 43.4744 45.1328 43 45.1328Z" fill="#F26522"/>
<path d="M54.1719 54.9296V50.2891C54.1719 45.4687 51.0903 41.0285 46.6779 39.4914C46.0097 39.259 45.5781 38.6736 45.5781 38C45.5781 37.3212 46.0229 36.7366 46.6781 36.5085C51.1604 34.9471 54.1719 30.7115 54.1719 25.9688V21.0704C56.1143 20.6777 57.6094 18.9566 57.6094 16.8594C57.6094 16.3848 57.2245 16 56.75 16H29.25C28.7755 16 28.3906 16.3848 28.3906 16.8594C28.3906 18.9344 29.8692 20.6705 31.8281 21.0698V25.9688C31.8281 30.7115 34.8396 34.9471 39.3221 36.5086C39.9903 36.741 40.4219 37.3264 40.4219 38C40.4219 38.6788 39.9771 39.2634 39.3219 39.4915C34.9097 41.0285 31.8281 45.4687 31.8281 50.2891V54.9302C29.8692 55.3295 28.3906 57.0655 28.3906 59.1406C28.3906 59.6152 28.7755 60 29.25 60H56.75C57.2245 60 57.6094 59.6152 57.6094 59.1406C57.6094 57.9934 57.1623 56.9146 56.3505 56.1026C55.7453 55.4974 54.9915 55.0953 54.1719 54.9296ZM30.2567 17.7102H55.7444C55.3839 18.731 54.4299 19.4375 53.3125 19.4375H32.6875C31.5671 19.4375 30.6113 18.7106 30.2567 17.7102ZM33.5469 50.2891C33.5469 46.1877 36.1542 42.4151 39.8873 41.1146C41.2287 40.6474 42.1406 39.416 42.1406 38C42.1406 36.606 41.235 35.3544 39.8873 34.8854C36.0948 33.5643 33.5469 29.981 33.5469 25.9688V21.1562H52.4531V25.9688C52.4531 29.981 49.9052 33.5643 46.1127 34.8854C44.7713 35.3526 43.8594 36.584 43.8594 38C43.8594 39.394 44.765 40.6456 46.1127 41.1146C49.8458 42.4151 52.4531 46.1877 52.4531 50.2891V54.8438H50.6808C50.297 51.7898 47.8525 50.6734 45.5472 49.8699C44.8215 49.6181 44.151 49.1976 43.6082 48.654C43.447 48.4926 43.2282 48.4019 43.0001 48.4019C42.772 48.4019 42.5532 48.4926 42.392 48.654C41.8422 49.2046 41.1899 49.6139 40.453 49.8703C38.1481 50.6733 35.7032 51.7896 35.3194 54.8438H33.5469V50.2891ZM48.9418 54.8438H37.0581C37.3787 53.0992 38.7462 52.2849 41.018 51.4935C41.7318 51.245 42.4053 50.8752 42.9999 50.408C43.5954 50.8758 44.2692 51.2457 44.9825 51.4934C47.2541 52.285 48.6213 53.0993 48.9418 54.8438ZM30.2567 58.2812C30.6113 57.2809 31.5671 56.5625 32.6875 56.5625H53.3125C54.0007 56.5625 54.648 56.8308 55.1351 57.3179C55.4119 57.5947 55.6179 57.9231 55.7444 58.2812H30.2567Z" fill="#F26522"/>
<path d="M50.3268 25.2377C50.0734 25.0812 49.757 25.067 49.4907 25.2C47.4865 26.2022 45.2421 26.7319 43 26.7319C40.7579 26.7319 38.5135 26.2022 36.5093 25.2001C36.243 25.0669 35.9267 25.0811 35.6732 25.2378C35.4198 25.3944 35.2656 25.6709 35.2656 25.9687C35.2656 29.2504 37.3498 32.1814 40.4528 33.2629C41.1785 33.5147 41.849 33.9352 42.3918 34.4788C42.553 34.6402 42.7718 34.7309 42.9999 34.7309C43.228 34.7309 43.4468 34.6402 43.608 34.4788C44.1578 33.9282 44.8101 33.519 45.547 33.2625C47.0697 32.7322 48.369 31.7567 49.3043 30.4414C50.2399 29.1257 50.7344 27.5791 50.7344 25.9687C50.7344 25.6709 50.5801 25.3943 50.3268 25.2377ZM47.9037 29.4453C47.1762 30.4683 46.1658 31.227 44.982 31.6393C44.2682 31.8878 43.5947 32.2577 43.0001 32.7248C42.4046 32.257 41.7308 31.8871 41.0175 31.6394C39.0544 30.9554 37.6155 29.3189 37.1477 27.3584C39.0092 28.0758 41.0055 28.4506 43.0001 28.4506C44.995 28.4506 46.9918 28.0756 48.8535 27.3578C48.6764 28.1021 48.3566 28.8085 47.9037 29.4453Z" fill="#F26522"/>
<path d="M43 39.7188C42.5255 39.7188 42.1406 40.1036 42.1406 40.5781V42.5547C42.1406 43.0292 42.5255 43.4141 43 43.4141C43.4745 43.4141 43.8594 43.0292 43.8594 42.5547V40.5781C43.8594 40.1036 43.4745 39.7188 43 39.7188Z" fill="#F26522"/>
</g>
<defs>
<clipPath id="clip0_46_434">
<rect width="86" height="68" fill="white"/>
</clipPath>
</defs>
</svg>
