<svg width="86" height="68" viewBox="0 0 86 68" fill="none" xmlns="http://www.w3.org/2000/svg">
<g clip-path="url(#clip0_46_467)">
<path d="M0 22.036C0 18.2327 2.6778 14.9551 6.40479 14.1967L76.4048 -0.0474854C81.3625 -1.05632 86 2.73254 86 7.79186V60C86 64.4183 82.4183 68 78 68H8C3.58172 68 0 64.4183 0 60V22.036Z" fill="#FBF8EF"/>
<g clip-path="url(#clip1_46_467)">
<path d="M63.9684 24.6203H62.0431L62.045 21.1785C62.0461 18.8678 60.1675 16.9869 57.8564 16.9858L43.2449 16.9775C43.2441 16.9775 43.2438 16.9775 43.243 16.9775C42.4113 16.9775 41.6292 17.3014 41.0409 17.8896L19.2273 39.7033C18.4358 40.4948 18 41.547 18 42.6665C18 43.7859 18.4358 44.8381 19.2273 45.6296L33.3835 59.7859C34.2006 60.6029 35.2738 61.0113 36.3467 61.0113C37.42 61.0113 38.4932 60.6029 39.3103 59.7859L53.0443 46.0519C53.4199 45.6762 53.4199 45.0673 53.0443 44.692C52.6686 44.3163 52.0597 44.3163 51.684 44.692L37.95 58.426C37.0661 59.3099 35.6277 59.3099 34.7438 58.426L20.5875 44.2698C20.1593 43.8415 19.9234 43.272 19.9234 42.6665C19.9234 42.0609 20.1593 41.4914 20.5875 41.0632L42.4008 19.2499C42.6258 19.0249 42.9248 18.9009 43.243 18.9009H43.2438L57.8553 18.9092C59.1055 18.9095 60.1224 19.9276 60.1217 21.1778L60.1171 29.2363H55.7854C55.4124 29.2363 55.0747 29.0838 54.8305 28.8382C55.2329 28.6657 55.61 28.4167 55.938 28.0887C57.32 26.7063 57.32 24.4576 55.938 23.0756C54.5555 21.6932 52.3069 21.6932 50.9244 23.0756C49.5424 24.4576 49.5424 26.7063 50.9244 28.0887C51.4368 28.6011 52.0687 28.9231 52.731 29.0557C53.2017 30.2844 54.3929 31.1597 55.7854 31.1597H60.116L60.1134 35.7698C60.1134 36.088 59.9894 36.3866 59.7644 36.6112L57.1243 39.2517C56.7486 39.6274 56.7486 40.2363 57.1243 40.612C57.4996 40.9873 58.1085 40.9873 58.4842 40.612L61.1247 37.9715C61.7122 37.3836 62.0364 36.6022 62.0367 35.7709L62.0394 31.1597H63.9684C65.7712 31.1597 67.2381 29.6931 67.2381 27.89C67.2381 26.0872 65.7712 24.6203 63.9684 24.6203V24.6203ZM52.2847 24.4355C52.601 24.1192 53.0161 23.9614 53.4316 23.9614C53.8467 23.9614 54.2618 24.1195 54.5781 24.4355C54.678 24.5358 54.7607 24.6466 54.829 24.7634C53.7734 25.0868 52.944 25.9317 52.6408 26.9963C52.5135 26.9253 52.3929 26.837 52.2847 26.7288C51.6525 26.0962 51.6525 25.0677 52.2847 24.4355V24.4355ZM63.9684 29.2363H62.0405L62.042 26.5436H63.9684C64.7107 26.5436 65.3147 27.1477 65.3147 27.89C65.3147 28.6323 64.7107 29.2363 63.9684 29.2363Z" fill="#F26522"/>
<path d="M33.5227 41.2409C33.6411 41.6665 34.0276 41.9449 34.4484 41.9449C34.534 41.9449 34.6208 41.9336 34.7068 41.9095L44.5791 39.1616C45.0907 39.0192 45.3901 38.4888 45.2477 37.9772C45.1054 37.4659 44.5753 37.1665 44.0633 37.3089L34.191 40.0564C33.6798 40.1992 33.3804 40.7292 33.5227 41.2409V41.2409Z" fill="#F26522"/>
<path d="M37.8687 42.5098C37.333 43.0455 37.0381 43.7574 37.0381 44.5151C37.0381 45.2724 37.333 45.9843 37.8687 46.52C38.4216 47.0726 39.1474 47.349 39.8735 47.349C40.5997 47.349 41.3258 47.0726 41.8788 46.52C42.9844 45.4144 42.9844 43.6154 41.8788 42.5098C40.7732 41.4043 38.9742 41.4043 37.8687 42.5098ZM40.5185 45.1597C40.1628 45.5155 39.5843 45.5155 39.2285 45.1597C39.0561 44.9877 38.9614 44.7585 38.9614 44.5147C38.9614 44.2713 39.0565 44.0421 39.2285 43.8697C39.4066 43.692 39.6403 43.603 39.8735 43.603C40.1072 43.603 40.3409 43.692 40.5185 43.8697C40.8743 44.2255 40.8743 44.8043 40.5185 45.1597Z" fill="#F26522"/>
<path d="M42.3549 36.7851C43.4605 35.6791 43.4605 33.8805 42.3549 32.7749C41.8192 32.2392 41.107 31.9443 40.3497 31.9443C39.5923 31.9443 38.8801 32.2392 38.3448 32.7749C37.2392 33.8805 37.2392 35.6791 38.3448 36.7851C38.8978 37.3376 39.6235 37.6141 40.3497 37.6141C41.0758 37.6141 41.802 37.3376 42.3549 36.7851ZM39.7047 34.1348C39.8771 33.9624 40.1062 33.8677 40.3497 33.8677C40.5935 33.8677 40.8226 33.9624 40.9947 34.1348C41.3504 34.4905 41.3504 35.069 40.9947 35.4248C40.6393 35.7805 40.0604 35.7805 39.7047 35.4248C39.3493 35.069 39.3493 34.4905 39.7047 34.1348Z" fill="#F26522"/>
<path d="M27.565 39.2542C27.1893 38.8785 26.5804 38.8785 26.2047 39.2542L23.4722 41.9867C23.2919 42.167 23.1904 42.4115 23.1904 42.6666C23.1904 42.9217 23.2919 43.1662 23.4722 43.3466L35.6671 55.5415C35.8546 55.729 36.101 55.8229 36.3471 55.8229C36.5931 55.8229 36.8392 55.729 37.027 55.5415L55.2599 37.3082C55.6355 36.9326 55.6355 36.3237 55.2599 35.948L43.0653 23.7534C42.885 23.5731 42.6404 23.4717 42.3854 23.4717C42.1303 23.4717 41.8857 23.5731 41.7054 23.7534L31.645 33.8139C31.2693 34.1895 31.2693 34.7985 31.645 35.1741C32.0202 35.5494 32.6292 35.5494 33.0048 35.1741L42.3854 25.7936L53.2201 36.6283L36.3471 53.5013L25.5124 42.6666L27.565 40.614C27.9402 40.2384 27.9406 39.6298 27.565 39.2542V39.2542Z" fill="#F26522"/>
<path d="M55.0847 41.6904C54.8315 41.6904 54.5836 41.7934 54.4048 41.9722C54.226 42.151 54.123 42.3993 54.123 42.6521C54.123 42.9049 54.226 43.1532 54.4048 43.3321C54.5836 43.5109 54.8315 43.6138 55.0847 43.6138C55.3375 43.6138 55.5855 43.5109 55.7647 43.3321C55.9435 43.1532 56.0464 42.9049 56.0464 42.6521C56.0464 42.3993 55.9435 42.151 55.7647 41.9722C55.5855 41.7934 55.3375 41.6904 55.0847 41.6904Z" fill="#F26522"/>
<path d="M30.2838 37.8936C30.4638 37.7148 30.5659 37.4676 30.5659 37.2136C30.5659 36.9608 30.4638 36.7136 30.2838 36.5337C30.105 36.3549 29.8578 36.252 29.6043 36.252C29.3511 36.252 29.1031 36.3549 28.9243 36.5337C28.7451 36.7125 28.6426 36.9608 28.6426 37.2136C28.6426 37.4676 28.7451 37.7148 28.9243 37.8936C29.1039 38.0735 29.3511 38.1753 29.6043 38.1753C29.8578 38.1753 30.105 38.0735 30.2838 37.8936Z" fill="#F26522"/>
</g>
</g>
<defs>
<clipPath id="clip0_46_467">
<rect width="86" height="68" fill="white"/>
</clipPath>
<clipPath id="clip1_46_467">
<rect width="49.2381" height="44" fill="white" transform="translate(18 17)"/>
</clipPath>
</defs>
</svg>
