<svg width="86" height="68" viewBox="0 0 86 68" fill="none" xmlns="http://www.w3.org/2000/svg">
<g clip-path="url(#clip0_178_157)">
<path d="M0 22.036C0 18.2327 2.6778 14.9551 6.40479 14.1967L76.4048 -0.0474854C81.3625 -1.05632 86 2.73254 86 7.79186V60C86 64.4183 82.4183 68 78 68H8C3.58172 68 0 64.4183 0 60V22.036Z" fill="#F26522"/>
<g clip-path="url(#clip1_178_157)">
<path d="M61.0808 23.5978C55.027 21.9391 48.9375 19.3562 43.4708 16.1286C43.1804 15.9571 42.8201 15.9571 42.5298 16.1286C36.9054 19.4489 31.145 21.8921 24.9192 23.5978C24.5171 23.7079 24.2383 24.0735 24.2383 24.4905V33.9476C24.2383 43.6863 28.731 50.1326 32.5 53.8254C36.5577 57.8013 41.2842 60 43.0003 60C44.7162 60 49.4428 57.8013 53.5004 53.8254C57.2693 50.1327 61.7618 43.6864 61.7618 33.9476V24.4905C61.7618 24.0735 61.483 23.7079 61.0808 23.5978ZM59.9107 33.9475C59.9107 43.0434 55.7203 49.0586 52.2048 52.5031C48.2146 56.4128 43.9484 58.1488 43.0003 58.1488C42.0521 58.1488 37.7857 56.4128 33.7955 52.5031C30.28 49.0585 26.0895 43.0434 26.0895 33.9475V25.1931C32.043 23.5027 37.5875 21.1436 43.0005 17.9981C48.2782 21.0602 54.0994 23.5366 59.9107 25.1927V33.9475Z" fill="white"/>
<path d="M34.7964 25.0895C34.6091 24.6139 34.0717 24.3802 33.596 24.5676C31.9425 25.2191 30.2455 25.8188 28.5519 26.3501C28.1659 26.4712 27.9033 26.8287 27.9033 27.2331V30.8074C27.9033 31.3185 28.3178 31.7329 28.8289 31.7329C29.3399 31.7329 29.7544 31.3185 29.7544 30.8074V27.9096C31.2737 27.418 32.7913 26.8743 34.2745 26.2898C34.7502 26.1026 34.9839 25.5652 34.7964 25.0895Z" fill="white"/>
<path d="M36.5546 25.2651C36.6788 25.2651 36.8049 25.2401 36.9258 25.1873L36.9428 25.1799C37.4111 24.9747 37.622 24.4296 37.4167 23.9615C37.2113 23.4932 36.6632 23.2814 36.1954 23.4864L36.1804 23.4929C35.7119 23.6975 35.5003 24.2422 35.705 24.7105C35.8568 25.0582 36.1975 25.2651 36.5546 25.2651Z" fill="white"/>
<path d="M54.0276 45.8442C53.5998 45.5646 53.0263 45.6848 52.7464 46.1127C51.9837 47.2801 51.0889 48.398 50.0866 49.435C49.2622 50.2876 48.369 51.0824 47.4317 51.797C47.0253 52.1069 46.9471 52.6876 47.2569 53.0942C47.4392 53.333 47.7148 53.4586 47.9936 53.4586C48.1893 53.4586 48.3865 53.3969 48.5541 53.269C49.5652 52.498 50.5285 51.641 51.4173 50.7216C52.5011 49.6007 53.4696 48.3907 54.2961 47.1252C54.5758 46.6973 54.4554 46.1237 54.0276 45.8442Z" fill="white"/>
<path d="M45.2827 53.249L45.2296 53.2803C44.7873 53.5365 44.6361 54.1026 44.8922 54.5449C45.0638 54.8414 45.3745 55.0069 45.6941 55.0069C45.8514 55.0069 46.0111 54.9668 46.1569 54.8822L46.2182 54.8461C46.6593 54.5878 46.8074 54.0209 46.5491 53.5798C46.2906 53.1388 45.7236 52.9909 45.2827 53.249Z" fill="white"/>
<path d="M36.691 36.1113C36.1227 35.5429 35.3668 35.2301 34.563 35.2301C33.7591 35.2301 33.0032 35.543 32.4347 36.1113C31.2614 37.2848 31.2614 39.1944 32.4347 40.3678L37.8999 45.8329C38.4683 46.4012 39.2241 46.7141 40.0281 46.7141C40.832 46.7141 41.5879 46.4012 42.1563 45.8328L53.5655 34.4236C54.7387 33.2497 54.7387 31.3405 53.5653 30.1673C52.9969 29.5989 52.2411 29.2861 51.437 29.2861C50.6331 29.2861 49.8773 29.599 49.3088 30.1673L40.028 39.4481L36.691 36.1113ZM50.6178 31.4763C50.8365 31.2576 51.1276 31.1372 51.4371 31.1372C51.7468 31.1372 52.0377 31.2576 52.2565 31.4763C52.7081 31.9279 52.7081 32.663 52.2564 33.1148L40.8474 44.5239C40.6287 44.7426 40.3376 44.863 40.0281 44.863C39.7185 44.863 39.4275 44.7426 39.2087 44.5239L33.7436 39.0589C33.2918 38.6072 33.2918 37.872 33.7434 37.4204C33.9622 37.2017 34.2533 37.0812 34.5629 37.0812C34.8725 37.0812 35.1634 37.2016 35.3821 37.4203L39.3735 41.4117C39.5472 41.5852 39.7825 41.6828 40.028 41.6828C40.2735 41.6828 40.5088 41.5853 40.6823 41.4117L50.6178 31.4763Z" fill="white"/>
</g>
</g>
<defs>
<clipPath id="clip0_178_157">
<rect width="86" height="68" fill="white"/>
</clipPath>
<clipPath id="clip1_178_157">
<rect width="44" height="44" fill="white" transform="translate(21 16)"/>
</clipPath>
</defs>
</svg>
